<svg xmlns="http://www.w3.org/2000/svg" viewBox="0 0 234.23 89.13"><defs><style>.cls-1,.cls-7{fill:#093974}.cls-2{fill:#fff}.cls-3{fill:#00934c}.cls-4{fill:#d81e3a}.cls-5{fill:#05397a}.cls-6{fill:none;stroke:#ebece8;stroke-width:1.99px}.cls-7{font-size:13.44px;font-family:AzoSans-BoldItalic,Azo Sans;font-weight:700;font-style:italic}.cls-8{letter-spacing:.07em}.cls-9{letter-spacing:.08em}.cls-10{letter-spacing:-.01em}.cls-11,.cls-12{letter-spacing:.07em}.cls-13{letter-spacing:-.02em}</style></defs><title>Asset 2</title><g id="Layer_2" data-name="Layer 2"><g id="Layer_1-2" data-name="Layer 1"><path class="cls-1" d="M8.79 46.1c-1-.25-5.74.77-6.48-.26-.32-.44.16-1.92.35-2.84 2.67-12.48 5.34-24.8 8-37.2.34-1.72.89-4.86 1.42-5.59C12.55-.09 14 0 15.63 0c.94 0 2.56-.17 2.93.27s-.1 2.16-.27 2.93c-2.63 12.42-5.37 25-8.08 37.37a27.39 27.39 0 0 1-1.42 5.5M37.2 34.21c1.6-6 2.55-12.72 4.26-18.64 1 .05 4.62-.8 5.33.18.4.56-.36 3-.53 3.82-1.37 6.41-2.84 12.8-4.17 19.08a44.61 44.61 0 0 1-1.78 7.46 32 32 0 0 1-5.33 0c-.83-.51-1-1.57-1.33-2.4-2.41-5.91-5-12.15-7.28-18.2-1.71 6.66-2.86 13.89-4.62 20.49-1.42.22-4.27.46-5.41-.18a52.82 52.82 0 0 1 1.42-7.72c1.36-6.22 2.7-12.68 4.08-19.08a11 11 0 0 1 1.07-3.55 26.26 26.26 0 0 1 3.55-.09 11 11 0 0 1 3 .09c.78.38 1.66 3.63 2 4.61 1.78 4.52 4.15 10 5.68 14.11M71.73 26.66c-.56-5.42-5.63-6.37-11.81-5.86-1.37 6.53-2.82 13-4.17 19.53 9.33 1.07 16.88-5 16-13.67M54.24 15.57c5.85 0 15-1.08 19.26 1.07a9.72 9.72 0 0 1 3.37 2.84c2.34 3.23 2.34 8.47 1.33 12.34-2.08 8-7 13.09-16 14.2a104.62 104.62 0 0 1-11.1.18c-1.07 0-3 .22-3.37-.35s.3-2.73.53-3.82c1.41-6.52 2.84-12.65 4.17-19a43.58 43.58 0 0 1 1.78-7.46M123.93 29.42c2.94.17 6.2-1.25 7.55-3.46a6 6 0 0 0 1-3.64c-.37-2.38-3.3-2.79-6.3-2.75-.92 3.1-1.47 6.57-2.22 9.85m8 3.46c1.22 3.27 2.6 6.42 3.9 9.67a9 9 0 0 1 1 3.37c-1.78.53-4.86.23-6.93.18-1.67-3.77-3-7.9-4.52-11.8H123c-.51 1.88-1 3.92-1.42 5.95a28.29 28.29 0 0 1-1.42 5.86c-1.71 0-4.57.44-5.86-.26a45.61 45.61 0 0 1 1.42-7.72c1.36-6.23 2.64-12.52 4.08-19.08.27-1.23.45-3.52 1.42-3.64a48.25 48.25 0 0 1 5.15 0c4.8 0 8.75-.12 11.1 2.4 3.3 3.54.76 10-2 12.69a12 12 0 0 1-3.55 2.4M150.74 34.12h7.9c-.54-3.6-1.07-7.22-1.78-10.65-2 3.58-4.11 7.07-6.12 10.65m16.6 11.8a19.94 19.94 0 0 1-6.57.09 52.39 52.39 0 0 1-1.24-6.84c-3.7-.21-7.78 0-11.63-.09-1.6 2.25-2.62 5.07-4.44 7.1-1.64-.13-3.84.29-5.06-.27.27-1.51 1.3-2.72 2-4 4.28-7.4 8.61-15.11 13.14-22.81.64-1.08 1.78-3.53 2.66-3.73s5.56-.27 6.21.27.6 2.43.8 3.64c1.09 6.41 2 12.71 3.11 19.09.43 2.54 1.14 5 1 7.54M183.14 15.57c1.11 5.37 1.75 11.21 2.57 16.87a6.44 6.44 0 0 0 1.42-2c3.16-4.88 6.56-10.18 9.85-15h4.44c1.45 0 3.1-.26 4.08.35a44.81 44.81 0 0 1-1.5 7.59c-1.44 6.36-2.72 12.75-4.08 19.17a10.58 10.58 0 0 1-1.07 3.55c-1.5.07-3.93.33-5.15-.18-.24-1.75.43-3.45.8-5.15 1.1-5 2.24-10.31 3.37-15.45-3 4.27-6.35 9.74-9.41 14.56-.39.61-1 1.78-1.42 2-.7.31-5 .34-5.59-.09s-.63-2.81-.8-4c-.6-4.18-1.31-8.18-1.78-12.34-1.31 5-2.33 10.5-3.46 15.71a22.75 22.75 0 0 1-1.33 5c-1.08-.2-4.54.72-5.24-.26-.37-.53.34-2.89.53-3.82 1.63-7.74 3.23-15.08 4.89-22.87.27-1.27.65-3.3 1.06-3.64a34.75 34.75 0 0 1 7.81 0M212.52 34.12h7.9c-.57-3.57-1.09-7.2-1.78-10.65-2 3.57-4.13 7.06-6.12 10.65m10.12 12c-.84-1.91-.9-4.6-1.33-6.92-3.67-.21-7.72 0-11.54-.09-1.76 2.12-2.68 5.08-4.53 7.1-1.63-.18-4 .39-5.06-.35a15.07 15.07 0 0 1 2-3.91c4.31-7.44 8.63-14.92 13.23-22.81.64-1.1 1.74-3.52 2.66-3.73s5.58-.3 6.21.18.62 2.63.8 3.73c1.22 7.57 2.42 14.81 3.73 22.81.16 1 .79 3.13.35 3.73-.75 1-5.16 0-6.48.26"/><path class="cls-2" d="M126.15 19.56c3 0 5.93.38 6.3 2.75a6 6 0 0 1-1 3.64c-1.35 2.21-4.6 3.64-7.55 3.46.75-3.28 1.3-6.75 2.22-9.85M55.75 40.33c1.35-6.55 2.8-13 4.17-19.53 6.18-.51 11.25.44 11.81 5.86.9 8.71-6.65 14.74-16 13.67M156.86 23.47c.71 3.43 1.23 7.05 1.78 10.65h-7.9c2-3.58 4.11-7.07 6.13-10.65M218.64 23.47c.69 3.45 1.2 7.08 1.78 10.65h-7.9c2-3.6 4.1-7.09 6.12-10.65"/><path class="cls-1" d="M85.67 24.35c3.91-4.14 10.3-8.26 18.82-6.92a23 23 0 0 0-12.43 4.44 12.45 12.45 0 0 1 5.95-1 19.9 19.9 0 0 0-8.88 5.42 15.49 15.49 0 0 0-4 10.21 11.15 11.15 0 0 0 6.58 10.4c-2.33-.83-4.74-1.91-6.3-4-2.09-2.79-2.48-8-1.51-12.25C82.35 33 82 37 82.56 40.69c-2.51-6.7-.18-14.82 3.73-19.35A18.58 18.58 0 0 1 102 14.5a15.46 15.46 0 0 1 7 2 34.85 34.85 0 0 0-7.1-.35 26.9 26.9 0 0 0-11.81 4.17 17.28 17.28 0 0 0-4.26 3.82c0 .07-.09.09-.09.18z"/><path class="cls-1" d="M107 17.52c7.37 1.29 7.43 12 4.7 18a16.16 16.16 0 0 1-6 7A17.43 17.43 0 0 1 94 45.3c1.21 1.13 4.14 1.68 6.84 1.33-8.15 2.43-14.4-3.47-14.47-10.92a14.94 14.94 0 0 1 1.69-6.66c-1.23 5.08.32 10.48 3.82 12.61a7.17 7.17 0 0 0 4.53 1 14.51 14.51 0 0 0 9.5-5.15 16.4 16.4 0 0 0 4.44-10.12c.25-4-1-7.75-3.37-9.85"/><path class="cls-3" d="M103.16 39c-1.9 1.28-5 3-8.43 2.31-3.16-.65-4.87-3.51-5.95-6.21a9.51 9.51 0 0 0 5.86 4.9c3 .71 6.14-.14 8.52-1"/><path class="cls-4" d="M109 16.5c-3.2-.25-3.22-.37-4.85-.4a19.76 19.76 0 0 0-5 .56 25.46 25.46 0 0 0-7.9 3 20.7 20.7 0 0 0-9.61 12.7 19.21 19.21 0 0 1 5.59-12.16 18.57 18.57 0 0 1 12-5.68 16.38 16.38 0 0 1 9.77 2"/><path class="cls-5" d="M6.78 56.8a.82.82 0 0 1-.16.18.59.59 0 0 1-.24.1 2.42 2.42 0 0 1-.42 0H4.48a2.41 2.41 0 0 1-.44 0 .36.36 0 0 1-.2-.11.41.41 0 0 1-.07-.2l-1.32-7.6a1.31 1.31 0 0 1 0-.28.19.19 0 0 1 .12-.16.93.93 0 0 1 .34-.07h1.28a1.65 1.65 0 0 1 .35 0 .24.24 0 0 1 .15.1.57.57 0 0 1 0 .17l.92 6.48L9.85 49a.66.66 0 0 1 .15-.2.5.5 0 0 1 .21-.09 2.18 2.18 0 0 1 .37 0h1.24a.51.51 0 0 1 .3.09s.06.12 0 .21a2.37 2.37 0 0 1-.22.37zM41.75 48.93a1.3 1.3 0 0 1 0 .14v.22a2.39 2.39 0 0 1-.07.25 1.26 1.26 0 0 1-.1.24.66.66 0 0 1-.15.18.29.29 0 0 1-.19.07h-3.91l-.54 2.05h3.27a.2.2 0 0 1 .17.07.29.29 0 0 1 .05.18 1.23 1.23 0 0 1 0 .14v.21a2.12 2.12 0 0 1-.07.24 1.15 1.15 0 0 1-.1.23.63.63 0 0 1-.15.17.3.3 0 0 1-.18.06h-3.31l-.62 2.37h3.91a.17.17 0 0 1 .15.07.33.33 0 0 1 0 .2v.14a1.45 1.45 0 0 1 0 .22c0 .08 0 .16-.07.24a1.2 1.2 0 0 1-.1.23.61.61 0 0 1-.15.17.31.31 0 0 1-.19.06H34a1 1 0 0 1-.24 0 .41.41 0 0 1-.18-.1.35.35 0 0 1-.1-.17.51.51 0 0 1 0-.24l1.89-7.33a.64.64 0 0 1 .3-.41 1 1 0 0 1 .5-.13h5.38c.14 0 .22.08.22.25M72.59 56.5a.63.63 0 0 1-.13.27.86.86 0 0 1-.23.2 1 1 0 0 1-.28.11 1.42 1.42 0 0 1-.32 0h-.93a2.17 2.17 0 0 1-.49 0 .78.78 0 0 1-.33-.16 1.08 1.08 0 0 1-.25-.32 4.14 4.14 0 0 1-.23-.51l-1.6-3.76c-.12-.29-.23-.58-.34-.88s-.2-.59-.3-.88q-.08.51-.19 1c-.07.33-.15.67-.24 1l-1.1 4.3a.23.23 0 0 1-.08.12.47.47 0 0 1-.19.08l-.32.05h-.97l-.29-.05a.22.22 0 0 1-.13-.08.13.13 0 0 1 0-.12l1.95-7.57a.7.7 0 0 1 .34-.46 1.19 1.19 0 0 1 .6-.15h1.14a2 2 0 0 1 .47 0 .88.88 0 0 1 .33.16 1 1 0 0 1 .24.28 2.42 2.42 0 0 1 .2.42l1.61 3.79c.11.24.2.48.29.72s.18.48.27.71c.06-.31.13-.63.21-1s.15-.65.23-1l1-4a.22.22 0 0 1 .08-.11.44.44 0 0 1 .18-.08h1.57a.24.24 0 0 1 .13.08.14.14 0 0 1 0 .11zM105.94 49a1.23 1.23 0 0 1 0 .15 2.1 2.1 0 0 1 0 .22 2.68 2.68 0 0 1-.08.26 1.39 1.39 0 0 1-.11.24.63.63 0 0 1-.15.18.29.29 0 0 1-.19.07h-2.71l-1.74 6.78a.28.28 0 0 1-.09.12.52.52 0 0 1-.2.08l-.35.05h-1.07l-.32-.05a.27.27 0 0 1-.15-.08.14.14 0 0 1 0-.12l1.74-6.78h-2.76a.19.19 0 0 1-.17-.07.36.36 0 0 1 0-.19 1.45 1.45 0 0 1 0-.15 2 2 0 0 1 0-.23 2.4 2.4 0 0 1 .08-.26 1.22 1.22 0 0 1 .11-.24.66.66 0 0 1 .15-.18.29.29 0 0 1 .18-.07h7.62a.19.19 0 0 1 .16.07.33.33 0 0 1 .05.2M136.68 54a4.14 4.14 0 0 1-.65 1.42 3.87 3.87 0 0 1-1.1 1 5.1 5.1 0 0 1-1.52.61 8.12 8.12 0 0 1-1.89.21 7.44 7.44 0 0 1-1.89-.21 3 3 0 0 1-1.25-.63 1.9 1.9 0 0 1-.59-1 3.14 3.14 0 0 1 .08-1.45l1.29-5a.23.23 0 0 1 .08-.12.51.51 0 0 1 .2-.08l.35-.05h1.07l.33.05a.29.29 0 0 1 .15.08.13.13 0 0 1 0 .12l-1.29 5a2.1 2.1 0 0 0-.08.86 1.12 1.12 0 0 0 .28.6 1.32 1.32 0 0 0 .6.35 3.14 3.14 0 0 0 .9.11 3.71 3.71 0 0 0 1-.13 2.65 2.65 0 0 0 .81-.37 2.36 2.36 0 0 0 .6-.59 2.47 2.47 0 0 0 .36-.8l1.29-5a.23.23 0 0 1 .08-.12.51.51 0 0 1 .19-.08l.35-.05h1.05l.32.05a.29.29 0 0 1 .15.08.14.14 0 0 1 0 .12zM166.86 50.84a.73.73 0 0 0-.08-.34.71.71 0 0 0-.25-.27 1.36 1.36 0 0 0-.46-.18 3.11 3.11 0 0 0-.67-.06h-1.24l-.61 2.39h1a3.49 3.49 0 0 0 1.06-.14 2.1 2.1 0 0 0 .7-.36 1.35 1.35 0 0 0 .39-.49 1.32 1.32 0 0 0 .12-.55m2.36-.32a2.45 2.45 0 0 1-.15.83 2.4 2.4 0 0 1-.46.77 3.19 3.19 0 0 1-.82.66 4.62 4.62 0 0 1-1.23.47 1.31 1.31 0 0 1 .67.49 3.06 3.06 0 0 1 .45 1l.44 1.71c0 .1 0 .18.05.26a1.1 1.1 0 0 1 0 .19.14.14 0 0 1-.05.11.47.47 0 0 1-.2.08h-1.57a1.59 1.59 0 0 1-.33-.05.27.27 0 0 1-.15-.09.41.41 0 0 1-.05-.14L165.4 55a2.64 2.64 0 0 0-.18-.57 1.3 1.3 0 0 0-.29-.41 1.1 1.1 0 0 0-.43-.25 2 2 0 0 0-.61-.08h-.68l-.83 3.21a.22.22 0 0 1-.08.12.54.54 0 0 1-.21.08h-1.4a1.75 1.75 0 0 1-.32 0 .33.33 0 0 1-.16-.08.12.12 0 0 1 0-.12l2-7.65a.6.6 0 0 1 .3-.41 1.09 1.09 0 0 1 .53-.13h2.9a7.85 7.85 0 0 1 1.37.11 3.68 3.68 0 0 1 1 .34 1.78 1.78 0 0 1 .67.57 1.41 1.41 0 0 1 .23.81M200.08 48.93a1.13 1.13 0 0 1 0 .14v.22a2.39 2.39 0 0 1-.07.25 1.26 1.26 0 0 1-.1.24.66.66 0 0 1-.15.18.29.29 0 0 1-.19.07h-3.86l-.54 2.05h3.28a.2.2 0 0 1 .17.07.29.29 0 0 1 0 .18 1.22 1.22 0 0 1 0 .14v.21a2.12 2.12 0 0 1-.07.24 1.15 1.15 0 0 1-.1.23.63.63 0 0 1-.15.17.3.3 0 0 1-.18.06h-3.32l-.62 2.37h3.91a.17.17 0 0 1 .15.07.33.33 0 0 1 0 .2v.14a1.45 1.45 0 0 1 0 .22c0 .08 0 .16-.07.24a1.2 1.2 0 0 1-.1.23.61.61 0 0 1-.15.17.31.31 0 0 1-.19.06h-5.43a1 1 0 0 1-.24 0 .41.41 0 0 1-.18-.1.35.35 0 0 1-.1-.17.52.52 0 0 1 0-.24l1.89-7.33a.64.64 0 0 1 .3-.41 1 1 0 0 1 .5-.13h5.38c.14 0 .22.08.22.25M229.35 49.33a1.33 1.33 0 0 1 0 .15v.21c0 .07 0 .16-.06.24a1.29 1.29 0 0 1-.09.22.68.68 0 0 1-.12.17.2.2 0 0 1-.14.06.73.73 0 0 1-.29-.08l-.43-.18a5 5 0 0 0-.6-.18 3.34 3.34 0 0 0-.78-.08 2.6 2.6 0 0 0-.77.1 1.56 1.56 0 0 0-.51.26 1 1 0 0 0-.3.36.91.91 0 0 0-.1.4.63.63 0 0 0 .15.41 1.65 1.65 0 0 0 .4.33 4.91 4.91 0 0 0 .57.3l.65.3q.33.16.65.34a2.88 2.88 0 0 1 .57.43 1.94 1.94 0 0 1 .4.56 1.67 1.67 0 0 1 .15.73 2.14 2.14 0 0 1-.32 1.13 2.9 2.9 0 0 1-.9.91A4.69 4.69 0 0 1 226 57a7 7 0 0 1-1.83.22 6.84 6.84 0 0 1-1-.07 7.06 7.06 0 0 1-.82-.17 4.24 4.24 0 0 1-.6-.21 1.56 1.56 0 0 1-.36-.2.36.36 0 0 1-.12-.29 1.09 1.09 0 0 1 0-.16v-.22c0-.08 0-.16.07-.25a1.3 1.3 0 0 1 .1-.23.66.66 0 0 1 .13-.17.23.23 0 0 1 .15-.06.76.76 0 0 1 .34.1l.49.22a5.21 5.21 0 0 0 .69.22 3.86 3.86 0 0 0 1 .1 3.43 3.43 0 0 0 .86-.1 2 2 0 0 0 .62-.27 1.21 1.21 0 0 0 .38-.39 1 1 0 0 0 .13-.49.65.65 0 0 0-.15-.42 1.61 1.61 0 0 0-.4-.33 4.38 4.38 0 0 0-.56-.29l-.64-.29q-.33-.16-.64-.34a2.78 2.78 0 0 1-.56-.43A2 2 0 0 1 223 52a1.72 1.72 0 0 1-.15-.74 2 2 0 0 1 .3-1.08 2.72 2.72 0 0 1 .84-.85 4.35 4.35 0 0 1 1.28-.55 6.37 6.37 0 0 1 1.64-.2 6.21 6.21 0 0 1 .79 0 6.64 6.64 0 0 1 .68.12 3.6 3.6 0 0 1 .53.17 1.65 1.65 0 0 1 .3.15.42.42 0 0 1 .12.13.34.34 0 0 1 0 .17"/><path class="cls-6" d="M.22 66.28h234.01"/><text class="cls-7" transform="translate(0 85.48)"><tspan class="cls-8">W</tspan><tspan class="cls-9" x="15.22" y="0">ELLMA</tspan><tspan class="cls-8" x="63.72" y="0">N I</tspan><tspan class="cls-9" x="84.26" y="0">NTER</tspan><tspan class="cls-8" x="123.69" y="0">N</tspan><tspan class="cls-10" x="135.22" y="0">A</tspan><tspan class="cls-11" x="144.97" y="0">TI</tspan><tspan class="cls-12" x="159.84" y="0">O</tspan><tspan class="cls-11" x="171.63" y="0">N</tspan><tspan class="cls-12" x="183.18" y="0">A</tspan><tspan class="cls-9" x="194.04" y="0">L</tspan><tspan class="cls-12" x="202.41" y="0"> </tspan><tspan class="cls-13" x="206.53" y="0">L</tspan><tspan class="cls-9" x="213.61" y="0">T</tspan><tspan x="223.57" y="0">D</tspan></text></g></g></svg>
