<svg xmlns="http://www.w3.org/2000/svg" xmlns:xlink="http://www.w3.org/1999/xlink" width="250" height="250" viewBox="0 0 250 250"><desc>This image was made on Patterninja.com</desc><defs><svg width="73.747" height="74.946" viewBox="0 0 73.7467467060062 74.94588079878686" id="a" data-image="30256"><svg xmlns="http://www.w3.org/2000/svg" viewBox="0 0 70 71" xmlns:xlink="http://www.w3.org/1999/xlink"><rect width="56" height="50" x="7" y="21" fill-rule="evenodd" rx="3" fill="rgba(99, 132, 190, 1)"/><path fill-rule="evenodd" d="M35 21h25.009A2.991 2.991 0 0 1 63 23.997v44.006A2.996 2.996 0 0 1 60.009 71H35V21z" fill="rgba(76, 112, 175, 1)"/><path fill-rule="evenodd" d="M63 57l7-4V38l-7-4v23zM0 38v15l7 4V34l-7 4z" fill="rgba(57, 81, 122, 1)"/><path fill-rule="evenodd" d="M42 7a7 7 0 1 0-14 0 7 7 0 0 0 5 6.706V21h4v-7.294A7 7 0 0 0 42 7" fill="rgba(160, 171, 189, 1)"/><path fill-rule="evenodd" d="M45 41a5 5 0 1 0 .001 10.001A5 5 0 0 0 45 41m-20 0a5 5 0 1 0 .001 10.001A5 5 0 0 0 25 41" fill="rgba(255, 255, 255, 1)"/></svg></svg><svg width="54.553" height="67.852" viewBox="0 0 54.553016480318625 67.85201054766002" id="b" data-image="92650"><svg xmlns="http://www.w3.org/2000/svg" viewBox="0 0 54 67" xmlns:xlink="http://www.w3.org/1999/xlink"><path fill-rule="evenodd" d="M1 14h52L43 67H11z" fill="rgba(143, 99, 73, 1)"/><path fill-rule="evenodd" d="M1 24h52l-5 23H6z" fill="rgba(156, 134, 121, 1)"/><path fill-rule="evenodd" d="M0 14h54l-3-7H3l-3 7zm8-7h38l-3-7H11L8 7z" fill="rgba(230, 230, 230, 1)"/></svg></svg><svg width="69.729" height="67.497" viewBox="0 0 69.72869575172031 67.49737748766523" id="c" data-image="78177"><svg xmlns="http://www.w3.org/2000/svg" viewBox="0 0 70 68" xmlns:xlink="http://www.w3.org/1999/xlink"><path fill-rule="evenodd" d="M14 65c9.113 0 11-2.853 11-8 0-.169-.02-.832-.025-1h20.05c0 .168-.025.831-.025 1 0 5.147 1.887 8 11 8v3H14v-3z" fill="rgba(81, 96, 120, 1)"/><rect width="70" height="54" y="2" fill-rule="evenodd" rx="6" fill="rgba(111, 130, 164, 1)"/><path fill-rule="evenodd" d="M70 47V5.998A5.993 5.993 0 0 0 64.002 0H5.998A5.995 5.995 0 0 0 0 5.998V47h70z" fill="rgba(165, 181, 211, 1)"/><circle cx="35" cy="52" r="3" fill-rule="evenodd" fill="rgba(80, 96, 121, 1)"/></svg></svg></defs><path fill="rgba(66, 165, 245, 1)" d="M0 0h250v250H0z"/><use xlink:href="#a" transform="translate(-250 -250)"/><use xlink:href="#a" transform="translate(0 -250)"/><use xlink:href="#a" transform="translate(250 -250)"/><use xlink:href="#a" transform="translate(-250)"/><use xlink:href="#a"/><use xlink:href="#a" transform="translate(250)"/><use xlink:href="#a" transform="translate(-250 250)"/><use xlink:href="#a" transform="translate(0 250)"/><use xlink:href="#a" transform="translate(250 250)"/><use xlink:href="#b" transform="translate(-250 -250)"/><use xlink:href="#b" transform="translate(0 -250)"/><use xlink:href="#b" transform="translate(250 -250)"/><use xlink:href="#b" transform="translate(-250)"/><use xlink:href="#b"/><use xlink:href="#b" transform="translate(250)"/><use xlink:href="#b" transform="translate(-250 250)"/><use xlink:href="#b" transform="translate(0 250)"/><use xlink:href="#b" transform="translate(250 250)"/><use xlink:href="#c" transform="translate(-250 -250)"/><use xlink:href="#c" transform="translate(0 -250)"/><use xlink:href="#c" transform="translate(250 -250)"/><use xlink:href="#c" transform="translate(-250)"/><use xlink:href="#c"/><use xlink:href="#c" transform="translate(250)"/><use xlink:href="#c" transform="translate(-250 250)"/><use xlink:href="#c" transform="translate(0 250)"/><use xlink:href="#c" transform="translate(250 250)"/></svg>